<?xml version="1.0" encoding="utf-8"?>
<!-- Generator: Adobe Illustrator 25.1.0, SVG Export Plug-In . SVG Version: 6.00 Build 0)  -->
<svg version="1.1"
	 id="Logo" xmlns:cc="http://creativecommons.org/ns#" xmlns:dc="http://purl.org/dc/elements/1.1/" xmlns:inkscape="http://www.inkscape.org/namespaces/inkscape" xmlns:rdf="http://www.w3.org/1999/02/22-rdf-syntax-ns#" xmlns:sodipodi="http://sodipodi.sourceforge.net/DTD/sodipodi-0.dtd" xmlns:svg="http://www.w3.org/2000/svg"
	 xmlns="http://www.w3.org/2000/svg" xmlns:xlink="http://www.w3.org/1999/xlink" x="0px" y="0px" viewBox="0 0 325.7 378.3"
	 style="enable-background:new 0 0 325.7 378.3;" xml:space="preserve">
<style type="text/css">
	.st0{fill:#FFFFFF;}
	.st1{fill:#4C4C4C;}
	.st2{fill:#808080;}
</style>
<sodipodi:namedview  bordercolor="#666666" borderopacity="1" gridtolerance="10" guidetolerance="10" id="namedview15" inkscape:current-layer="Logo" inkscape:cx="481.73464" inkscape:cy="72.632202" inkscape:pageopacity="0" inkscape:pageshadow="2" inkscape:window-height="705" inkscape:window-maximized="1" inkscape:window-width="1366" inkscape:window-x="-8" inkscape:window-y="-8" inkscape:zoom="0.5" objecttolerance="10" pagecolor="#ffffff" showgrid="false">
	</sodipodi:namedview>
<g id="g849">
	<g id="BKG_white">
		<path id="path6_1_" class="st0" d="M325.7,267.6V95.9L177,10.1h-27.7L0,95.9v171.6v-0.8v0.8l13.9,23.8l148.7,86.6l148.5-85.8
			L325.7,267.6z"/>
		<polyline class="st0" points="162.9,-0.4 149.3,10.1 177,10.1 		"/>
		<polyline class="st0" points="0,285 0,267.5 13.9,291.3 		"/>
		<polyline class="st0" points="325.7,285 311.1,292.1 325.7,267.6 		"/>
	</g>
	<path id="path6" class="st1" d="M325.7,268V96.3L177,10.5v65.9l58.2,33.7c2.3,1.5,2.3,4.6,0,5.4l-69,39.8c-2.3,1.5-4.6,0.8-6.1,0
		l-69-39.8c-2.3-0.8-2.3-4.6,0-5.4l58.2-33.7V10.5L0,96.3v171.6v-0.8v0.8l56.7-33v-67.4c0-2.3,3.1-3.8,4.6-3.1l69,39.8
		c2.3,1.5,3.1,3.1,3.1,5.4v79.7c0,2.3-3.1,3.8-4.6,3.1l-58.2-33.7l-56.7,33l148.7,86.6l148.5-85.8l-56.7-33l-58.2,33.7
		c-2.3,1.5-4.6,0-4.6-3.1v-79.6c0-2.3,1.5-4.6,3.1-5.4l69-39.8c2.3-1.5,4.6,0,4.6,3.1v67.4L325.7,268z"/>
	<path id="path8" d="M162.5,378.3l148.6-85.8l-56.7-33l-58.2,33.7c-2.3,1.5-4.6,0-4.6-3.1v-79.6c0-2.3,1.5-4.6,3.1-5.4l69-39.8
		c2.3-1.5,4.6,0,4.6,3.1v67.4l56.7,33V96.3l-162.5,94.3L162.5,378.3L162.5,378.3z"/>
	<path id="path10" class="st2" d="M177,10.5v65.9l58.2,33.7c2.3,1.5,2.3,4.6,0,5.4l-69,39.8c-2.3,1.5-4.6,0.8-6.1,0l-69-39.8
		c-2.3-0.8-2.3-4.6,0-5.4l58.2-33.7V10.5L0,96.3l162.5,94.3L325,96.3L177,10.5z"/>
	<path id="path12" class="st1" d="M129.5,293.3l-58.2-33.8l-56.7,33l148.7,85.8V190.6L0,96.3v171.6v-0.8v0.8l56.7-33v-67.4
		c0-2.3,3.1-3.8,4.6-3.1l69,39.8c2.3,1.5,3.1,3.1,3.1,5.4v79.7C134.1,292.5,131.8,294.8,129.5,293.3z"/>
</g>
</svg>
