<?xml version="1.0" encoding="utf-8"?>
<!-- Generator: Adobe Illustrator 25.1.0, SVG Export Plug-In . SVG Version: 6.00 Build 0)  -->
<svg version="1.1"
	 id="svg2" xmlns:cc="http://creativecommons.org/ns#" xmlns:dc="http://purl.org/dc/elements/1.1/" xmlns:rdf="http://www.w3.org/1999/02/22-rdf-syntax-ns#" xmlns:svg="http://www.w3.org/2000/svg"
	 xmlns="http://www.w3.org/2000/svg" xmlns:xlink="http://www.w3.org/1999/xlink" x="0px" y="0px" viewBox="0 0 756.9 754.1"
	 style="enable-background:new 0 0 756.9 754.1;" xml:space="preserve">
<style type="text/css">
	.st0{fill:#FFFFFF;}
	.st1{clip-path:url(#SVGID_2_);}
</style>
<path id="WhiteBKG" class="st0" d="M378.5,754.9c101,0,195.9-39.3,267.2-110.7C717,572.8,756.3,478,756.3,377S717,181.2,645.6,109.9
	C574.2,38.5,479.4-0.8,378.4-0.8S182.6,38.3,111.3,109.7C39.9,181.2,0.6,276,0.6,376.9s39.3,195.9,110.7,267.2
	C182.6,715.5,277.5,754.9,378.5,754.9"/>
<g id="g10" transform="matrix(1.3333333,0,0,-1.3333333,-184.47843,1221.5239)">
	<g id="g16">
		<g>
			<g>
				<defs>
					<rect id="SVGID_1_" x="-488" y="-398.2" width="1820.4" height="1820.4"/>
				</defs>
				<clipPath id="SVGID_2_">
					<use xlink:href="#SVGID_1_"  style="overflow:visible;"/>
				</clipPath>
				<g id="g18" class="st1">
					<g id="g66" transform="translate(312.5538,585.913)">
						<path id="path68" d="M-89.9,0c0,0-10.5,52,44.9,115c55.3,63,96.9,85.9,141.7,97.8c0,0,0,0-0.1,0c0.1,0,0.1,0,0.2,0
							c0,0-35.2-20.5-35.2-51.5c0-9,1.4-15.2,3.4-19.3c2.6-5.5,6.8-7.4,10.6-7.4c3.2,0,5,1.3,9,2.8V-30.5c0,0,0.4-2.7,2.9-5.9
							c3.5-4.6,9-10.2,19.3-10.3c17.6,0.1,39.8,20,39.8,20v136c0,13.8-9.9,30.5-20.4,36.3c0,0,1.4,0.1,3.7,0.1
							c6.9,0,21.8-0.8,30.1-7.1c2.3,2.7,39.4,44.7,105.5,57.6l0,0c0.1,0,0.1,0,0.2,0c0,0-36.5-43-48-64.3c-2-0.1-2.3-40.5-2-80.8
							c0.3-38.9,1.3-77.8,1.8-80.5c0,0,3.9-5.8,13.8-5.8c11.2-0.1,30.1,7.2,59.6,38.3l0,0l0,0c0,0-0.8-1.8-2.4-4.9
							c-8.5-16.9-40-73.7-95.9-106.7l0,0l0,0l-36.3,30.7l-0.9,0.8l-39.6-42c0,0,0,0-0.1,0l0,0c0,0-90.2,7.6-127.9,62
							c0,0,0.1,0,0.2-0.1c0,0,0,0,0,0.1c0,0,5.7-2.2,12.1-2.3c7.5-0.1,15.5,2.6,15.5,15.2V83.5c0,6.5-4.5,13.9-14.4,13.8
							c-8.9,0-21.6-6-39-23.8C-74.5,35.8-89.8,0-89.9,0c0.1,0,0.1,0,0.1,0.1L-89.9,0 M110.6-216.8c70.4,0,136.6,27.4,186.3,77.2
							c49.8,49.8,77.2,115.9,77.2,186.3S346.7,183.3,296.9,233c-49.8,49.8-115.9,77.2-186.3,77.2S-26,282.9-75.7,233.1
							c-49.8-49.8-77.2-115.9-77.2-186.3s27.4-136.6,77.2-186.3C-26-189.3,40.2-216.8,110.6-216.8"/>
					</g>
					<g id="g70" transform="translate(513,908.3072)">
						<path id="path72" d="M-89.9,0C62.4,0,185.8-123.4,185.8-275.6S62.4-551.3-89.9-551.3s-275.6,123.4-275.6,275.6
							S-242.1,0-89.9,0 M-89.9-559.1c75.7,0,146.9,29.5,200.4,83s83,124.7,83,200.4s-29.5,146.9-83,200.4s-124.7,83-200.4,83
							s-146.9-29.5-200.4-83s-83-124.7-83-200.4s29.5-146.9,83-200.4S-165.6-559.1-89.9-559.1"/>
					</g>
				</g>
			</g>
		</g>
	</g>
</g>
</svg>
