<?xml version="1.0" encoding="utf-8"?>
<!-- Generator: Adobe Illustrator 23.0.3, SVG Export Plug-In . SVG Version: 6.00 Build 0)  -->
<svg version="1.1" id="Layer_1" xmlns="http://www.w3.org/2000/svg" xmlns:xlink="http://www.w3.org/1999/xlink" x="0px" y="0px"
	 viewBox="0 0 600 138.6" style="enable-background:new 0 0 600 138.6;" xml:space="preserve">
<style type="text/css">
	.st0{fill:#FFFFFF;}
</style>
<g>
	<path class="st0" d="M4.8,60.1c0-9.3-0.3-17.1-0.6-23.8h19.1l1,9.9h0.3c5.2-7.4,13.3-11.5,23.6-11.5c15.5,0,29.4,13.5,29.4,36.1
		c0,25.8-16.4,38-32.2,38c-8.6,0-15.2-3.5-18.4-8.1h-0.3V136h-22V60.1z M26.9,76.8c0,1.7,0.1,3.2,0.4,4.6
		c1.5,5.9,6.5,10.4,12.9,10.4c9.6,0,15.2-8,15.2-20c0-11.3-5.1-19.9-14.9-19.9c-6.2,0-11.7,4.6-13.2,11.2c-0.3,1.2-0.4,2.6-0.4,3.9
		V76.8z"/>
	<path class="st0" d="M124.2,108.8c-20.7,0-36.7-13.6-36.7-36.5s15.1-37.6,38-37.6c21.6,0,36.1,14.9,36.1,36.4
		c0,25.8-18.4,37.7-37.3,37.7H124.2z M124.8,93c8.7,0,14.1-8.6,14.1-21.3c0-10.4-4.1-21.2-14.1-21.2c-10.4,0-14.5,10.7-14.5,21.3
		c0,12,5.1,21.2,14.4,21.2H124.8z"/>
	<path class="st0" d="M175.2,59.7c0-10.4-0.1-17.3-0.6-23.3h18.9l0.9,13.2h0.6c3.6-10.4,12.2-14.8,19.1-14.8c2,0,3,0.1,4.6,0.4v20.7
		c-1.7-0.3-3.5-0.6-5.9-0.6c-8.1,0-13.6,4.2-15.1,11.2c-0.3,1.4-0.4,3-0.4,4.9v35.8h-22V59.7z"/>
	<path class="st0" d="M258,17v19.3h15.8v16.2H258v25.7c0,8.6,2.2,12.5,8.7,12.5c3,0,4.5-0.1,6.5-0.6l0.1,16.7
		c-2.8,1-8.1,1.9-14.2,1.9c-7.1,0-13.1-2.5-16.7-6.1c-4.1-4.2-6.1-11-6.1-21v-29H227V36.3h9.4V23L258,17z"/>
	<path class="st0" d="M289.2,107.2V52.6h-9.4V36.3h9.4v-2.8c0-8.6,2.6-18,8.8-23.8c5.7-5.2,13.2-7.1,19.7-7.1
		c4.8,0,8.6,0.7,11.6,1.4l-0.9,17c-1.9-0.6-4.2-1-7.1-1c-7.3,0-10.3,5.7-10.3,12.6v3.6h14.2v16.2h-14.1v54.7H289.2z"/>
	<path class="st0" d="M367.2,108.8c-20.7,0-36.7-13.6-36.7-36.5s15.1-37.6,38-37.6c21.6,0,36.1,14.9,36.1,36.4
		c0,25.8-18.4,37.7-37.3,37.7H367.2z M367.8,93c8.7,0,14.1-8.6,14.1-21.3c0-10.4-4.1-21.2-14.1-21.2c-10.4,0-14.5,10.7-14.5,21.3
		c0,12,5.1,21.2,14.4,21.2H367.8z"/>
	<path class="st0" d="M418.2,4.1h22v103.1h-22V4.1z"/>
	<path class="st0" d="M469,27.6c-7,0-11.5-4.9-11.5-11c0-6.2,4.6-11,11.7-11s11.5,4.8,11.6,11c0,6.1-4.5,11-11.7,11H469z
		 M458.1,107.2V36.3h22v70.9H458.1z"/>
	<path class="st0" d="M530.5,108.8c-20.7,0-36.7-13.6-36.7-36.5s15.1-37.6,38-37.6c21.6,0,36.1,14.9,36.1,36.4
		c0,25.8-18.4,37.7-37.3,37.7H530.5z M531,93c8.7,0,14.1-8.6,14.1-21.3c0-10.4-4.1-21.2-14.1-21.2c-10.4,0-14.5,10.7-14.5,21.3
		c0,12,5.1,21.2,14.4,21.2H531z"/>
</g>
<rect x="574.7" y="86.2" class="st0" width="21.3" height="21.3"/>
</svg>
